<svg width="185" height="156" viewBox="0 0 185 156" fill="none" xmlns="http://www.w3.org/2000/svg">
<path d="M71.0622 155.612H70.298L40.8766 71.9328L19.8614 11.5616C20.9095 10.3212 22.0598 9.17085 23.3002 8.12274C26.8003 5.11913 30.8747 2.85889 35.2757 1.47946C39.6767 0.100036 44.3124 -0.369733 48.9007 0.098725L78.7042 84.924L99.7194 144.531C96.1108 148.45 91.6499 151.487 86.6811 153.408C81.7124 155.33 76.3686 156.084 71.0622 155.612Z" fill="url(#paint0_linear_1_3)"/>
<path d="M14.8941 155.994C12.6807 155.757 10.5364 155.083 8.58562 154.01C6.63485 152.938 4.91647 151.489 3.53019 149.747C2.1439 148.005 1.11732 146.006 0.510009 143.864C-0.0973034 141.722 -0.273253 139.481 -0.00763099 137.271L11.8373 30.2843C12.6491 22.8395 15.8689 15.8631 21.0076 10.4153L24.0644 7.35855C27.5775 4.53839 31.6159 2.44435 35.9451 1.19807C40.2743 -0.0482135 44.8079 -0.421891 49.2828 0.0987301L33.6168 141.092C33.0809 145.542 30.9002 149.631 27.5033 152.555C25.7486 153.96 23.7242 154.991 21.5553 155.582C19.3865 156.174 17.1193 156.314 14.8941 155.994Z" fill="#00A388"/>
<path d="M144.425 155.23L111.947 95.2406L89.7849 54.3564L91.6954 52.4459C95.0869 49.3925 99.0905 47.0974 103.439 45.7138C107.788 44.3301 112.381 43.8897 116.914 44.4219L117.678 45.186L149.774 105.175L171.936 145.677L170.025 147.206C166.576 150.29 162.507 152.601 158.092 153.985C153.677 155.368 149.017 155.793 144.425 155.23Z" fill="url(#paint1_linear_1_3)"/>
<path d="M144.043 155.23L150.92 94.4764C151.175 92.2268 151.882 90.0519 152.998 88.0822C154.115 86.1124 155.617 84.3884 157.416 83.0136C159.088 81.5973 161.046 80.5572 163.155 79.9638C165.265 79.3705 167.478 79.2378 169.643 79.5747C171.89 79.7642 174.076 80.4037 176.071 81.4553C178.065 82.5069 179.828 83.949 181.254 85.6958C182.68 87.4426 183.74 89.4585 184.371 91.6234C185.002 93.7883 185.191 96.058 184.927 98.2974L181.87 125.426C180.878 133.662 176.943 141.261 170.789 146.824C170.407 147.206 169.643 147.588 169.261 148.352C165.719 151.105 161.667 153.13 157.339 154.311C153.011 155.491 148.492 155.803 144.043 155.23Z" fill="#00A388"/>
<path d="M70.298 155.23L79.4683 73.0791C80.5857 65.2947 84.3665 58.1382 90.167 52.828C90.6191 52.1229 91.2904 51.5859 92.0775 51.2996C98.9781 45.7982 107.747 43.195 116.532 44.0398H116.914L108.126 126.572C107.103 133.81 103.749 140.517 98.5731 145.677C94.9486 149.388 90.4971 152.188 85.5826 153.849C80.6682 155.509 75.4305 155.982 70.298 155.23Z" fill="#00A388"/>
<defs>
<linearGradient id="paint0_linear_1_3" x1="19.8614" y1="-0.0772707" x2="226.575" y2="247.521" gradientUnits="userSpaceOnUse">
<stop stop-color="#00DDFF"/>
<stop offset="1" stop-color="#FF00D4"/>
</linearGradient>
<linearGradient id="paint1_linear_1_3" x1="89.7849" y1="44.2027" x2="296.499" y2="291.801" gradientUnits="userSpaceOnUse">
<stop stop-color="#00DDFF"/>
<stop offset="1" stop-color="#FF00D4"/>
</linearGradient>
</defs>
</svg>
