<svg version="1.1" id="Layer_1" xmlns="http://www.w3.org/2000/svg" xmlns:xlink="http://www.w3.org/1999/xlink" x="0px" y="0px" viewBox="0 0 500 500" style="width: 188px;" xml:space="preserve" data-imageid="authentication-2-6" imageName="Authentication 2" class="illustrations_image">
<style type="text/css">
	.st0_authentication-2-6{fill:#FFFFFF;}
	.st1_authentication-2-6{fill:#D1D3D4;}
	.st2_authentication-2-6{fill:#231F20;}
	.st3_authentication-2-6{fill:#68E1FD;}
</style>
<g id="Roundels_authentication-2-6">
	<circle class="st0_authentication-2-6" cx="250" cy="242.8" r="146"/>
	<path class="st1_authentication-2-6" d="M250,389.4c-80.9,0-146.6-65.8-146.6-146.6S169.1,96.1,250,96.1s146.6,65.8,146.6,146.6S330.9,389.4,250,389.4&#10;&#9;&#9;z M250,97.5c-80.1,0-145.2,65.2-145.2,145.2S169.9,388,250,388s145.2-65.2,145.2-145.2S330.1,97.5,250,97.5z"/>
</g>
<g id="Hand_with_Smartphone_authentication-2-6">
	<path class="st0_authentication-2-6" d="M370,356.1c0,0-15.2-35.8-19.1-49.8s-3-29.3-3-29.3l-10.8-55c0,0-75.9-39-98.3-52.5s-49.5-34.5-57.4-29.9&#10;&#9;&#9;s-6.5,14.9,2.8,25.2c3.8,4.2,9,8.6,12.2,13.2c2.6,3.8,5.8,15.6,2.7,19.8c-3.7,5-13.6-10.6-18.8-5.7c-2.7,2.6-3.3,11.9,2.2,19.9&#10;&#9;&#9;c2.1,3.1,7.1,7.8,10,10.2c7.6,6.5,9.2,11.6,15.2,19.5c6.2,8.1,1.5-4,1,5.4c-0.6,11.3-2.2,24.9,1,36c5.1,17.7,35.2,39.7,48.3,50.9&#10;&#9;&#9;s6.5,49.5,6.5,49.5L370,356.1z"/>
	<path class="st2_authentication-2-6" d="M264.4,384.2c-0.2,0-0.3-0.1-0.4-0.2c-0.2-0.2-0.3-0.4-0.2-0.6c0.1-0.4,6.4-38-6.3-48.8&#10;&#9;&#9;c-2.1-1.8-4.8-4-7.6-6.3c-14.6-11.9-36.6-29.9-40.9-44.9c-2.8-9.5-2-20.8-1.4-30.8c0.1-1.8,0.2-3.6,0.3-5.4c0-1.1,0.2-2.2,0.5-3.2&#10;&#9;&#9;c-0.4-0.4-0.9-1-1.4-1.7c-2-2.7-3.5-5-5-7.2c-2.8-4.2-5.1-7.9-10.1-12.2c-0.8-0.6-7.4-6.4-10.1-10.4c-5.8-8.4-5.1-17.9-2.1-20.8&#10;&#9;&#9;s7.4,0.2,11.2,3c1.5,1.2,3.1,2.2,4.8,3.1c1.7,0.7,2.4,0.2,2.8-0.4c2.8-3.8-0.1-15.2-2.7-19c-2.3-3.1-4.9-6-7.8-8.7&#10;&#9;&#9;c-1.6-1.5-3-3-4.3-4.5c-6-6.6-8.8-13.2-8-18.6c0.5-3.2,2.5-6,5.3-7.6c6.3-3.7,22.3,6.7,40.8,18.8c5.8,3.8,11.8,7.7,17.4,11.1&#10;&#9;&#9;c22.1,13.4,97.5,52.1,98.2,52.5c0.2,0.1,0.3,0.3,0.4,0.5l10.8,55c0,0.1,0,0.1,0,0.2c0,0.1-0.9,15.3,3,29s19,49.4,19.1,49.7&#10;&#9;&#9;c0.1,0.2,0.1,0.4,0,0.6c-0.1,0.2-0.3,0.3-0.5,0.4l-105.6,27.5L264.4,384.2z M209.6,245c-0.2,0.7-0.2,1.4-0.3,2.2&#10;&#9;&#9;c-0.1,1.8-0.2,3.6-0.3,5.4c-0.6,9.9-1.3,21.1,1.3,30.3c4.2,14.6,26,32.4,40.4,44.2c2.8,2.3,5.5,4.5,7.6,6.3&#10;&#9;&#9;c12.1,10.4,7.9,42.6,6.9,49.1l103.7-27c-2.2-5.2-15.2-36.4-18.9-49.2c-3.8-13.4-3.1-28.1-3-29.4l-10.7-54.6&#10;&#9;&#9;c-5.3-2.7-76.6-39.4-98-52.4c-5.6-3.4-11.6-7.3-17.4-11.1c-16.6-10.8-33.7-22-39.3-18.8c-2.5,1.4-4.3,3.9-4.7,6.7&#10;&#9;&#9;c-0.7,4.9,2,11.2,7.7,17.4c1.3,1.4,2.8,2.9,4.3,4.4c2.9,2.7,5.6,5.7,8,8.9c2.6,3.8,6.1,16,2.7,20.6c-1,1.4-2.5,1.6-4.5,0.8&#10;&#9;&#9;c-1.8-0.9-3.5-2-5.1-3.2c-3.5-2.6-7.1-5.3-9.4-3.2s-3.2,11.1,2.3,19c2.1,3.1,7.2,7.8,9.9,10.1c5.1,4.4,7.5,8.1,10.3,12.5&#10;&#9;&#9;c1.4,2.2,2.9,4.5,4.9,7.1c0.5,0.6,0.9,1.1,1.2,1.4c0.1,0,0.2-0.1,0.4-0.1c0.8,0,1.5,0.6,1.7,1.4c0.2,0.5,0,1-0.4,1.3&#10;&#9;&#9;C210.6,245.6,210.2,245.5,209.6,245z"/>
	<path class="st0_authentication-2-6" d="M295.6,312.3h-98c-4,0-7.2-3.2-7.2-7.2V95.6c0-4,3.2-7.2,7.2-7.2h98c4,0,7.2,3.2,7.2,7.2v209.6&#10;&#9;&#9;C302.8,309.1,299.5,312.3,295.6,312.3z"/>
	<path class="st2_authentication-2-6" d="M295.6,313h-98c-4.3,0-7.9-3.5-7.9-7.9V95.6c0-4.3,3.5-7.8,7.9-7.9h98c4.3,0,7.9,3.5,7.9,7.9v209.6&#10;&#9;&#9;C303.5,309.5,299.9,313,295.6,313L295.6,313z M197.6,89.1c-3.6,0-6.4,2.9-6.4,6.5v209.5c0,3.6,2.9,6.5,6.4,6.5h98&#10;&#9;&#9;c3.6,0,6.5-2.9,6.5-6.5V95.6c0-3.6-2.9-6.5-6.5-6.5L197.6,89.1z"/>
	<rect x="196.1" y="108.6" class="st3_authentication-2-6 targetColor" width="100.5" height="172.3" style="fill: rgb(56, 161, 147);"/>
	<path class="st1_authentication-2-6" d="M255,306.1h-19.1c-2.8,0-5.1-2.3-5.1-5.1v-7.3c0-2.8,2.3-5.1,5.1-5.1H255c2.8,0,5.1,2.3,5.1,5.1v7.3&#10;&#9;&#9;C260.1,303.9,257.8,306.1,255,306.1z M235.9,290c-2,0-3.7,1.7-3.7,3.7v7.3c0,2,1.7,3.7,3.7,3.7c0,0,0,0,0,0H255&#10;&#9;&#9;c2,0,3.7-1.7,3.7-3.7v-7.3c0-2-1.7-3.7-3.7-3.7H235.9z"/>
	<path class="st1_authentication-2-6" d="M266.8,99.1h-28.6c-0.4,0-0.7-0.3-0.7-0.7c0-0.4,0.3-0.7,0.7-0.7h28.6c0.4,0,0.7,0.3,0.7,0.7&#10;&#9;&#9;C267.5,98.8,267.2,99.1,266.8,99.1L266.8,99.1z"/>
	<path class="st1_authentication-2-6" d="M234.2,98.8h-3.8c-0.4,0-0.7-0.3-0.7-0.7c0-0.4,0.3-0.7,0.7-0.7h3.8c0.4,0,0.7,0.3,0.7,0.7&#10;&#9;&#9;C234.9,98.5,234.6,98.8,234.2,98.8L234.2,98.8z"/>
	<path class="st0_authentication-2-6" d="M210.7,202.1c0.3,3.8-2,7.4-5.9,9.4c-4.5,2-9.5,2.3-14.2,0.7c-2.7-0.8-5.1-2.2-7.3-4&#10;&#9;&#9;c-3.7-3.1-5.9-7.3-5.4-11.2c0.8-6.3,9.1-10.3,17.5-9.3C203.4,188.5,210.2,196.6,210.7,202.1z"/>
	<path class="st2_authentication-2-6" d="M197,213.9c-2.2,0-4.5-0.3-6.6-1c-2.8-0.9-5.3-2.3-7.5-4.2c-4-3.4-6.1-7.8-5.6-11.8c0.8-6.5,9-11,18.3-10&#10;&#9;&#9;c8.2,0.9,15.4,9,15.9,15.1l0,0c0.3,4.1-2.1,7.9-6.3,10C202.6,213.3,199.8,213.9,197,213.9z M192.9,188.2c-7.4,0-13.7,3.8-14.3,8.9&#10;&#9;&#9;c-0.4,3.5,1.5,7.5,5.1,10.6c2.1,1.7,4.5,3.1,7.1,3.9c4.5,1.5,9.4,1.3,13.7-0.7c3.7-1.8,5.8-5.2,5.5-8.7&#10;&#9;&#9;c-0.4-4.9-6.7-12.9-14.6-13.8C194.6,188.2,193.7,188.2,192.9,188.2L192.9,188.2z"/>
	<path class="st0_authentication-2-6" d="M209.2,230.4c1.6,2.3,2.1,5.2,1.3,7.9c-0.7,1.6-1.7,3-2.9,4.1c-3.4,3.2-8,5.4-12.6,4.8&#10;&#9;&#9;c-2.8-0.6-5.4-1.8-7.7-3.5c-4.1-2.8-8-6.3-9.3-11c-1.9-6.8,3-16.9,11-15.8C195.7,217.6,205.7,225,209.2,230.4z"/>
	<path class="st2_authentication-2-6" d="M196.7,248c-0.6,0-1.2,0-1.8-0.1c-2.9-0.6-5.6-1.8-8-3.6c-5.4-3.7-8.4-7.3-9.6-11.4c-1.1-4.6,0-9.5,3.1-13.1&#10;&#9;&#9;c2.1-2.6,5.4-4,8.7-3.6c6.8,0.9,17.1,8.4,20.7,14l0,0c1.7,2.5,2.2,5.7,1.4,8.6c-0.7,1.7-1.7,3.2-3.1,4.4&#10;&#9;&#9;C204.6,246.2,200.6,248,196.7,248z M188,217.4c-2.5,0-4.9,1.2-6.5,3.2c-2.8,3.3-3.8,7.7-2.8,11.8c1.1,3.8,3.9,7.2,9,10.7&#10;&#9;&#9;c2.2,1.7,4.7,2.8,7.4,3.4c3.9,0.6,8.3-1.1,12-4.6c1.2-1,2.1-2.3,2.8-3.8c0.7-2.5,0.3-5.2-1.2-7.3l0,0c-3.4-5.2-13.3-12.5-19.7-13.3&#10;&#9;&#9;C188.7,217.4,188.3,217.4,188,217.4z"/>
	<path class="st0_authentication-2-6" d="M205.3,252.4c1.6,1.1,2.9,2.5,3.8,4.1c2,3.7,1.3,8.6-1.2,11.9c-2.7,3.3-6.7,5.4-10.9,5.7&#10;&#9;&#9;c-5,0.6-10.1-0.9-13.9-4.3c-3.8-3.4-5.4-8.6-4.4-13.6C181.7,243.4,197.3,246.5,205.3,252.4z"/>
	<path class="st2_authentication-2-6" d="M194.9,274.9c-4.5,0-8.9-1.6-12.3-4.6c-4-3.6-5.7-9-4.6-14.3c1-4.3,3.5-7.2,7.2-8.6c6.3-2.3,15.1,0.4,20.5,4.3&#10;&#9;&#9;l0,0c1.6,1.1,3,2.6,4,4.3c2,4.1,1.5,9.1-1.3,12.7c-2.8,3.5-6.9,5.6-11.4,6C196.3,274.9,195.6,274.9,194.9,274.9z M190.4,248&#10;&#9;&#9;c-1.6,0-3.2,0.2-4.8,0.8c-3.3,1.2-5.4,3.8-6.3,7.6c-1,4.7,0.6,9.7,4.2,12.9c3.7,3.2,8.5,4.7,13.3,4.1c4.1-0.3,7.8-2.3,10.4-5.4&#10;&#9;&#9;c2.5-3.2,3-7.5,1.2-11.1c-0.9-1.5-2.1-2.9-3.6-3.9C200.6,249.9,195.6,248.2,190.4,248z"/>
	<polygon class="st3_authentication-2-6 targetColor" points="362.5,325.6 352.2,303.8 253.2,338 259.6,361.9 &#9;" style="fill: rgb(56, 161, 147);"/>
	<polygon class="st2_authentication-2-6" points="252.3,352.6 361.5,317.2 392.7,374.7 271.2,411.6 &#9;"/>
	<path class="st2_authentication-2-6" d="M271.2,412.3c-0.3,0-0.6-0.2-0.7-0.5l-18.9-59c-0.1-0.4,0.1-0.8,0.4-0.9c0,0,0,0,0,0l109.2-35.5&#10;&#9;&#9;c0.3-0.1,0.7,0,0.8,0.3l31.1,57.5c0.2,0.3,0.1,0.8-0.3,0.9c0,0-0.1,0-0.1,0.1l-121.5,36.9C271.3,412.3,271.3,412.3,271.2,412.3z&#10;&#9;&#9; M253.2,353.1l18.4,57.6l120-36.4L361.2,318L253.2,353.1z"/>
	<path class="st0_authentication-2-6" d="M347.8,280.3c0,0-0.7-60-7.7-71.9s-29.1-62-35-62.3s-12,17.7-6.8,33.8c3,9.5,7.5,18.5,13.3,26.6&#10;&#9;&#9;c0,0-15.3,13.3-3.8,57.5"/>
	<path class="st2_authentication-2-6" d="M347.8,281c-0.4,0-0.7-0.3-0.7-0.7c0-0.6-0.8-60-7.6-71.6c-2.2-3.7-5.7-10.9-9.9-19.3&#10;&#9;&#9;c-7.8-15.9-20.9-42.4-24.7-42.7c-1.4-0.1-2.6,1.1-3.4,2.1c-4.3,5.6-6.6,18.9-2.7,30.8c3,9.4,7.5,18.3,13.2,26.4&#10;&#9;&#9;c0.3,0.3,0.2,0.7-0.1,1c0,0,0,0,0,0c-0.1,0.1-14.8,13.7-3.5,56.8c0.1,0.4-0.1,0.8-0.5,0.9s-0.8-0.1-0.9-0.5&#10;&#9;&#9;c-10.5-40.2,1-55,3.5-57.7c-5.6-8.1-10-17-13-26.3c-4-12.3-1.6-26.2,2.9-32.1c1.4-1.8,3-2.8,4.5-2.7c4.2,0.2,13.4,18.2,25.8,43.5&#10;&#9;&#9;c4.1,8.4,7.7,15.6,9.8,19.2c7,11.9,7.8,69.8,7.8,72.3C348.5,280.7,348.2,281,347.8,281C347.8,281,347.8,281,347.8,281L347.8,281z"/>
	<circle class="st0_authentication-2-6" cx="355.2" cy="352.9" r="7.4"/>
</g>
<g id="Password_Bubble_authentication-2-6">
	<path class="st0_authentication-2-6" d="M266.2,103.8H136.4c-6.8,0-12.3,5.5-12.3,12.3l0,0v65.3c0,6.8,5.5,12.3,12.3,12.3h110l18.1,23.1v-23h1.6&#10;&#9;&#9;c6.8,0,12.3-5.5,12.3-12.3l0,0v-65.3C278.4,109.3,273,103.8,266.2,103.8z"/>
	<path class="st2_authentication-2-6" d="M264.6,217.4c-0.2,0-0.4-0.1-0.5-0.3l-17.9-22.8H136.4c-7.2,0-13-5.8-13-13l0,0v-65.3c0-7.2,5.8-13,13-13&#10;&#9;&#9;h129.8c7.2,0,13,5.8,13,13v65.3c0,7.2-5.8,13-13,13l0,0h-0.9v22.4c0,0.3-0.2,0.6-0.5,0.7C264.7,217.4,264.6,217.4,264.6,217.4z&#10;&#9;&#9; M136.4,104.5c-6.4,0-11.6,5.2-11.6,11.6v65.3c0,6.4,5.2,11.6,11.6,11.6h110c0.2,0,0.4,0.1,0.6,0.3l16.9,21.4v-21&#10;&#9;&#9;c0-0.4,0.3-0.7,0.7-0.7l0,0h1.6c6.4,0,11.6-5.2,11.6-11.6v-65.3c0-6.4-5.2-11.6-11.6-11.6H136.4z"/>
	<path class="st3_authentication-2-6 targetColor" d="M187.4,126.2h27.9c2.8,0,5.1,2.3,5.1,5.1v14.1c0,2.8-2.3,5.1-5.1,5.1h-27.9c-2.8,0-5.1-2.3-5.1-5.1v-14.1&#10;&#9;&#9;C182.3,128.5,184.5,126.2,187.4,126.2z" style="fill: rgb(56, 161, 147);"/>
	<path class="st3_authentication-2-6 targetColor" d="M210.8,132h-19c-1.5,0-2.8-1.3-2.8-2.8l0,0v-7.6c-0.2-6.8,5.2-12.5,12-12.7c6.8-0.2,12.5,5.2,12.7,12&#10;&#9;&#9;c0,0.2,0,0.5,0,0.7v7.6C213.6,130.7,212.4,132,210.8,132C210.8,132,210.8,132,210.8,132z M194.6,126.4H208v-4.8&#10;&#9;&#9;c0.1-3.7-2.7-6.8-6.5-7c-3.7-0.1-6.8,2.7-7,6.5c0,0.2,0,0.3,0,0.5L194.6,126.4z" style="fill: rgb(56, 161, 147);"/>
	<circle class="st2_authentication-2-6" cx="201.3" cy="134.6" r="3.6"/>
	<rect x="200.3" y="135.3" class="st2_authentication-2-6" width="2" height="8.5"/>
	<path class="st1_authentication-2-6" d="M260.3,179H141.7c-2.5,0-4.5-2-4.5-4.5v-12.6c0-2.5,2-4.5,4.5-4.5h0h118.6c2.5,0,4.5,2,4.5,4.5v12.6&#10;&#9;&#9;C264.8,176.9,262.8,179,260.3,179C260.3,179,260.3,179,260.3,179z M141.7,158.8c-1.7,0-3.1,1.4-3.1,3.1v12.6c0,1.7,1.4,3.1,3.1,3.1&#10;&#9;&#9;h118.6c1.7,0,3.1-1.4,3.1-3.1v-12.6c0-1.7-1.4-3.1-3.1-3.1L141.7,158.8z"/>
	<path class="st2_authentication-2-6" d="M150,168.8l1.6,2.1l-1.8,1.2l-1.6-2.1l-1.5,2l-1.7-1.2l1.6-2l-2.5-0.9l0.7-2l2.5,0.9v-2.5h2.1v2.5l2.5-0.8&#10;&#9;&#9;l0.7,1.9L150,168.8z"/>
	<path class="st2_authentication-2-6" d="M161.5,168.8l1.6,2.1l-1.8,1.2l-1.6-2.1l-1.5,2l-1.7-1.2l1.6-2l-2.5-0.8l0.7-2l2.5,0.9v-2.5h2.1v2.5l2.5-0.8&#10;&#9;&#9;l0.7,2L161.5,168.8z"/>
	<path class="st2_authentication-2-6" d="M173,168.8l1.6,2.1l-1.8,1.2l-1.6-2.1l-1.6,2l-1.7-1.2l1.6-2l-2.6-0.9l0.7-2l2.5,0.9v-2.5h2.1v2.5l2.5-0.8&#10;&#9;&#9;l0.7,1.9L173,168.8z"/>
	<path class="st2_authentication-2-6" d="M184.5,168.8l1.6,2.1l-1.8,1.2l-1.6-2.1l-1.6,2l-1.7-1.2l1.6-2l-2.5-0.8l0.7-2l2.5,0.9v-2.5h2.1v2.5l2.5-0.8&#10;&#9;&#9;l0.6,2L184.5,168.8z"/>
	<path class="st2_authentication-2-6" d="M196.1,168.8l1.6,2.1l-1.8,1.2l-1.6-2.1l-1.5,2l-1.8-1.2l1.6-2l-2.5-0.8l0.7-2l2.5,0.9v-2.5h2.2v2.5l2.5-0.8&#10;&#9;&#9;l0.7,1.9L196.1,168.8z"/>
</g>
</svg>