<svg id="_0376_explosion" xmlns="http://www.w3.org/2000/svg" viewBox="0 0 500 500" data-imageid="explosion-52" imageName="Explosion" class="illustrations_image" style="width: 188px;"><defs><style>.cls-1_explosion-52{fill:#e6e6e6;}.cls-2_explosion-52{opacity:.09;}.cls-2_explosion-52,.cls-3_explosion-52{fill:none;}.cls-3_explosion-52{opacity:.3;}.cls-4_explosion-52{fill:#000001;}.cls-5_explosion-52{fill:#ffd200;}.cls-6_explosion-52{fill:#68e1fd;}</style></defs><g id="explosion_explosion-52"><g class="cls-3_explosion-52"><circle class="cls-1_explosion-52" cx="261.16" cy="252.89" r="215.48"/></g><path class="cls-5_explosion-52" d="m222.97,394.05c3.36-15.28,17.63-27.47,33.25-28.4s31.24,9.47,36.4,24.24c.52-13.24,3.3-29.61,15.94-33.55,6.64-2.07,13.78.29,20.26,2.81,19.55,7.61,38.44,16.93,56.38,27.8-7.3-12.96-12-27.37-13.75-42.14-.83-7.05.29-16.14,7.08-18.24,3.96-1.22,8.15.65,11.86,2.49,12.2,6.05,24.32,12.27,36.34,18.67-22.35-21.93-42.34-46.26-59.51-72.45-2.91-4.43-5.89-9.08-10.44-11.8-4.55-2.73-10.08-3.19-15.38-3.23-34.87-.3-72.01,14.97-94.1,42.47-19.41,24.16-19.04,62.08-24.33,91.35Z"/><path class="cls-5_explosion-52" d="m150.18,320.46c11.69-7.65,23.39-15.6,33.44-25.38,6.96-6.77,10.92-15.44,17.65-22.19,18.01-18.05,30.75-33.15,36.99-58.88,5.15-21.74,9.15-45.71,10.26-67.91-7.53,3.35-16.83-.69-21.57-7.44s-5.78-15.43-5.49-23.67c-5.21,9.25-13.24,17.85-23.7,19.69s-22.73-6.07-22.14-16.67c2.13,17.19-16.74,33.09-33.16,31.76-10.45-.85-20.01-7.23-25.97-15.85,2.04,10.92,5.45,27.69,1.52,38.52-3.39,9.35-13.13,9.87-22.26,10.19-14,.49-28.06-.45-41.87-2.8,14.26,7.9,25.92,20.4,32.82,35.17,2.88,6.17,4.97,12.94,4.27,19.71-.88,8.48-5.98,15.88-11.27,22.58-14.69,18.59-32.14,34.99-51.59,48.52,9.3-2.34,18.98-3.2,28.55-2.53,7.77.54,16.96,3.39,18.86,10.94,1.13,4.48-.79,9.11-2.8,13.27-4.95,10.24-10.67,20.12-17.09,29.51,5.05-4.26,10.25-8.6,16.48-10.78s13.82-1.75,18.63,2.78c7.07,6.66,5.15,18.15,2.69,27.54,9.85-25.2,34.11-41.27,56.75-56.08Z"/><path class="cls-5_explosion-52" d="m319.82,125.97c2.8,6.88,5.6,13.77,8.4,20.65,2.39,5.89,5.17,12.23,10.76,15.27,5.53,3.02,12.48,1.93,18.23-.65,9.3-4.17,16.84-12.1,20.53-21.6-.24,10.64-.12,22.37,6.88,30.4,3.01,3.45,7.02,5.84,11.09,7.93,19.25,9.85,41.47,13.81,62.94,11.22-5.98,2.99-12.11,6.08-16.67,10.97-4.56,4.89-7.32,12.04-5.22,18.39,1.37,4.13,4.58,7.42,8.11,9.97,10.23,7.39,24.02,9.6,36.05,5.77-14.47,2.31-28.95,6.71-40.71,15.47-11.75,8.76-20.48,22.41-20.69,37.07-.02,1.45,1.67,3.38,2.31,2.08-21.51-5.48-44.8-3.72-65.24,4.93-6.79,2.87-14.1,6.57-21.18,4.49-4.18-1.23-7.56-4.34-10.29-7.74-11.59-14.41-13.7-34.06-14.51-52.54-.87-19.88-1.68-40.42-.8-60.3.69-15.66,16.26-36.38,10.01-51.77Z"/><path class="cls-6_explosion-52 targetColor" d="m442.01,273.37c-.29,13.67-7.48,26.3-16.22,36.81-12.01,14.44-27.78,26.27-45.95,31-18.17,4.72-38.83,1.57-53.14-10.56-19.69,19.5-46.49,31.67-74.12,33.69-.68.06-1.35.1-2.03.14-28.35,1.57-57.17-7.57-79.43-25.18-13.13,20.13-38.09,31.87-61.96,29.16-24.72-2.82-42.51-59.29-14.56-72.12-10.22,4.7-22.95-2.66-27.19-13.07-3.74-9.21-2.29-19.65,1.2-29.06.45-1.23.95-2.44,1.46-3.64,8.67-19.92,27.3-37.25,49.02-37.14-6.34-15.5,5.59-32.42,18.7-42.83,29.92-23.74,70.42-33.57,107.89-26.22,3.05.6,6.16,1.31,9.25.91,3.44-.46,6.52-2.27,9.67-3.72,15.64-7.23,35-5.71,49.31,3.86,16.49,11.02,24.92,30.4,32.52,48.71,11.96-15.15,36.79-15.21,52.07-3.41s21.92,32.06,22.17,51.34c13.28,3.21,21.64,17.69,21.35,31.36Z" style="fill: rgb(243, 64, 74);"/><g class="cls-2_explosion-52"><path class="cls-4_explosion-52" d="m143.69,278.16c6.27-4.36,15.74-4.27,21.01,1.25,1.67-10.78,6.66-21.36,15.27-28.06,8.61-6.7,21.1-8.81,30.72-3.68-.69-4.54,1.04-9.22,3.9-12.82,2.86-3.6,6.75-6.24,10.79-8.43,4.3-2.33,8.95-4.25,13.84-4.54s10.06,1.27,13.29,4.94c-2.83-2.4-6.77-3.17-10.46-2.79-3.69.38-7.19,1.79-10.55,3.36-3.15,1.47-6.27,3.11-8.81,5.49-6.76,6.31-8.14,16.34-9.11,25.53.16-1.52-6.46-4.13-7.59-4.52-2.96-1.01-6.25-1.48-9.37-1.31-5.37.29-10.94,2.72-14.35,6.93-7.68,9.46-9.76,22.17-11.02,34.28-4.86-5.23-12.22-7.15-19.19-8.68-2.41-.53-4.91-1.04-7.33-.55-2.28.47-4.3,1.8-6.08,3.3-3.1,2.6-5.68,5.81-7.58,9.39,2.94-6.87,6.29-14.68,12.63-19.09Z"/></g><g class="cls-2_explosion-52"><path class="cls-4_explosion-52" d="m367.89,223.22c6.86,11.39,9.32,25.1,8.33,38.36.6-13.49-5.77-26.55-14.68-36.69-4.63-5.27-10.05-9.97-16.4-12.93-14.12-6.58-25.6-.98-39.62-.29,3.96-7.48,16.91-11.5,24.87-11.51,15.47-.02,29.72,10.16,37.49,23.06Z"/></g><path class="cls-1_explosion-52" d="m179.92,369.21c-3.2,1.47-6.37,3.59-7.68,6.85s.2,7.78,3.64,8.52c2.67.57,5.36-1.29,6.7-3.67,2.25-3.98,1.36-9.46-2.04-12.52"/><g class="cls-2_explosion-52"><path class="cls-4_explosion-52" d="m330,327.13c11.36-5.7,19.32-17.28,21.6-29.79-7.97,9.52-17.56,18.1-29.18,22.48-12.08,4.55-24.45,3.33-35.49-3.06-2.08,17.47,34.53,14.66,43.07,10.37Z"/></g><g class="cls-2_explosion-52"><path class="cls-4_explosion-52" d="m273.22,153.93c9.46,6.23,15.67,17.12,16.23,28.43-1.13-8.31-7.04-15.11-13.09-20.93-8.24-7.93-17.14-14.37-28.3-17.34,8.74,1.78,17.68,4.91,25.15,9.83Z"/></g><path class="cls-1_explosion-52" d="m81.7,147.77c1.71,4.03-2.13,9.22-6.48,8.77s-7.05-6.31-4.56-9.91,8.93-3.13,10.88.79"/><path class="cls-1_explosion-52" d="m464.58,316.72c-.15-1.13-.54-2.07-1.23-2.97-.75-.97-1.99-2.07-3.26-2.25-1.46-.2-2.92-.41-4.38-.61-1.75-.24-3.24-.3-4.83.63-1.3.76-2.54,2.25-2.88,3.75-.37,1.61-.29,3.41.63,4.83.67,1.04,1.71,2.16,2.93,2.65,1.47.97,3.02,1.57,4.91,1.64,1.7.06,3.72-.42,5.11-1.43.87-.63,1.7-1.31,2.25-2.25.71-1.22.93-2.62.74-4Z"/><path class="cls-1_explosion-52" d="m406.91,361.98c-5.38,0-5.39,8.36,0,8.36s5.39-8.36,0-8.36Z"/><path class="cls-1_explosion-52" d="m360.8,122.57c-.11-.35-.3-.64-.58-.9-.19-.15-.38-.29-.56-.44-.43-.25-.9-.38-1.41-.38-.25.03-.49.07-.74.1-.47.13-.88.37-1.23.72-.26.26-.52.52-.78.78-.27.25-.46.55-.58.9-.17.33-.25.69-.24,1.07-.01.38.07.74.24,1.07.11.35.3.64.58.9.19.15.38.29.56.44.43.25.9.38,1.41.38.25-.03.49-.07.74-.1.47-.13.88-.37,1.23-.72.26-.26.52-.52.78-.78.27-.25.46-.55.58-.9.17-.33.25-.69.24-1.07.01-.38-.07-.74-.24-1.07Z"/><path class="cls-1_explosion-52" d="m275.06,105.95c-3.59,0-3.59,5.57,0,5.57s3.59-5.57,0-5.57Z"/><path class="cls-1_explosion-52" d="m52.95,219.14c-5.38,0-5.39,8.36,0,8.36s5.39-8.36,0-8.36Z"/><path class="cls-1_explosion-52" d="m23.13,197.17c-5.38,0-5.39,8.36,0,8.36s5.39-8.36,0-8.36Z"/><g class="cls-2_explosion-52"><path class="cls-4_explosion-52" d="m252.57,364.3c-.68.06-1.35.1-2.03.14-28.35,1.57-57.17-7.57-79.43-25.18-13.13,20.13-38.09,31.87-61.96,29.16-24.72-2.82-42.51-59.29-14.56-72.12-10.22,4.7-22.95-2.66-27.19-13.07-3.74-9.21-2.29-19.65,1.2-29.06,10.83,9.42,26.13,13.64,40.22,10.73-11.41,11.39-10.41,31.72.01,44.03,10.41,12.31,27.94,17,43.93,14.87,15.99-2.15,30.61-10.24,43.5-19.93,6.05,27.8,30.56,47.92,56.17,60.38.06.03.1.06.15.07Z"/></g><path class="cls-5_explosion-52" d="m226.79,225.69l-3.82-29.27s1.07,25.38-8.87,20.41-14.39-10.2-14.39-9.42,2.97,31.92-7.93,23.28c-10.9-8.63-11.95-6.54-11.95-6.54,0,0,5.49,23.02-2.88,18.31-8.37-4.71-15.96-7.33-15.96-7.33l18.98,16.22s9.8-9.16,30.21-2.88c0,0,.78-14.04,16.62-22.8Z"/></g></svg>